<svg width="20" height="20" viewBox="0 0 20 20" fill="none" xmlns="http://www.w3.org/2000/svg">
<path d="M6.66536 3.33268H5.99886C5.06544 3.33268 4.59838 3.33268 4.24186 3.51434C3.92826 3.67413 3.67348 3.92891 3.51369 4.24251C3.33203 4.59903 3.33203 5.06609 3.33203 5.99951V6.66602M6.66536 3.33268H13.332M6.66536 3.33268V1.66602M13.332 3.33268H13.9989C14.9323 3.33268 15.3983 3.33268 15.7549 3.51434C16.0685 3.67413 16.3241 3.92891 16.4839 4.24251C16.6654 4.59868 16.6654 5.06518 16.6654 5.99677V6.66602M13.332 3.33268V1.66602M3.33203 6.66602V13.9995C3.33203 14.9329 3.33203 15.3994 3.51369 15.7559C3.67348 16.0695 3.92826 16.3247 4.24186 16.4845C4.59803 16.666 5.06453 16.666 5.99612 16.666H14.0013C14.9329 16.666 15.3987 16.666 15.7549 16.4845C16.0685 16.3247 16.3241 16.0695 16.4839 15.7559C16.6654 15.3997 16.6654 14.9339 16.6654 14.0023V6.66602M3.33203 6.66602H16.6654M13.332 13.3327H13.3337L13.3337 13.3343L13.332 13.3343V13.3327ZM9.9987 13.3327H10.0004L10.0003 13.3343L9.9987 13.3343V13.3327ZM6.66536 13.3327H6.66703L6.66699 13.3343L6.66536 13.3343V13.3327ZM13.3337 9.99935V10.001L13.332 10.001V9.99935H13.3337ZM9.9987 9.99935H10.0004L10.0003 10.001L9.9987 10.001V9.99935ZM6.66536 9.99935H6.66703L6.66699 10.001L6.66536 10.001V9.99935Z" stroke="white" stroke-linecap="round" stroke-linejoin="round"/>
</svg>
